<svg width="111" height="143" viewBox="0 0 111 143" fill="none" xmlns="http://www.w3.org/2000/svg">
<g id="figma 1" clip-path="url(#clip0_745_6164)">
<g id="Group">
<path id="Vector" d="M20.7286 128.743C32.0881 131.366 43.4357 124.275 46.0583 112.916L50.8092 92.3369L30.2306 87.5859C18.8711 84.9634 7.52342 92.0542 4.90089 103.414C2.27836 114.773 9.36918 126.121 20.7286 128.743Z" fill="#0ACF83"/>
<path id="Vector_2" d="M14.4033 62.2564C17.0259 50.897 28.3736 43.8062 39.733 46.4287L60.3117 51.1797L50.8098 92.3371L30.2311 87.5861C18.8716 84.9636 11.7808 73.6159 14.4033 62.2564Z" fill="#A259FF"/>
<path id="Vector_3" d="M23.9048 21.0992C26.5273 9.73976 37.875 2.64894 49.2345 5.27147L69.8132 10.0224L60.3112 51.1798L39.7325 46.4289C28.3731 43.8063 21.2823 32.4586 23.9048 21.0992Z" fill="#F24E1E"/>
<path id="Vector_4" d="M69.813 10.0225L90.3917 14.7734C101.751 17.396 108.842 28.7437 106.219 40.1031C103.597 51.4625 92.2492 58.5534 80.8898 55.9308L60.3111 51.1799L69.813 10.0225Z" fill="#FF7262"/>
<path id="Vector_5" d="M96.7179 81.2603C94.0954 92.6198 82.7477 99.7106 71.3883 97.088C60.0288 94.4655 52.938 83.1178 55.5606 71.7584C58.1831 60.3989 69.5308 53.3081 80.8902 55.9307C92.2497 58.5532 99.3405 69.9009 96.7179 81.2603Z" fill="#1ABCFE"/>
</g>
</g>
<defs>
<clipPath id="clip0_745_6164">
<rect width="84.48" height="126.72" fill="white" transform="translate(28.6558 0.520508) rotate(13)"/>
</clipPath>
</defs>
</svg>
