<svg width="97" height="95" viewBox="0 0 97 95" fill="none" xmlns="http://www.w3.org/2000/svg">
<g id="github-icon 1" clip-path="url(#clip0_745_6189)">
<g id="Group">
<path id="Vector" d="M41.7877 6.66559C18.7492 10.3145 3.02575 31.9518 6.67523 54.9937C9.59475 73.4269 24.0258 87.1721 41.4763 90.0632C43.6225 90.1191 44.1835 88.7066 44.0089 87.6047C43.8514 86.6098 43.2922 83.3295 42.722 79.8462C31.5151 84.2083 27.8866 77.15 27.8866 77.15C25.225 72.6283 22.2875 71.7791 22.2875 71.7791C18.0921 69.7893 22.1711 69.1977 22.1711 69.1977C26.4072 68.8285 29.2475 72.4841 29.2475 72.4841C33.9787 78.2729 39.7255 75.4725 41.9374 74.0294C41.8848 71.2736 42.6745 69.2619 43.7026 68.0311C34.2689 68.4438 23.961 66.4093 21.4291 50.4233C20.7077 45.8684 21.748 41.8885 23.954 38.5441C23.3544 37.5619 21.2543 33.5448 22.6095 27.4393C22.6095 27.4393 25.9353 25.7631 34.7629 29.8982C37.9444 28.4467 41.44 27.4178 44.9831 26.8404C48.5311 26.2947 52.1764 26.1926 55.6569 26.5889C62.765 19.9299 66.4411 20.4971 66.4411 20.4971C69.6222 25.8841 68.8655 30.3537 68.5988 31.4731C71.7366 33.9711 73.9448 37.4364 74.6662 41.9914C77.2042 58.0154 68.0031 63.0895 58.8765 65.5938C60.578 66.6515 62.3135 68.9792 62.93 72.8716C63.8141 78.4538 64.4774 82.9542 64.695 84.3283C64.8708 85.4386 65.8279 86.6205 67.8777 85.8759C83.5708 77.729 93.0337 60.2051 90.1151 41.7781C86.4657 18.7362 64.8282 3.01633 41.7877 6.66559ZM25.106 70.23C25.047 70.4518 24.7307 70.5657 24.4111 70.4704C24.0869 70.3822 23.8722 70.1266 23.9374 69.9031C23.9934 69.6754 24.3108 69.5642 24.6353 69.6594C24.9602 69.7475 25.1781 70.0054 25.106 70.23ZM27.4482 71.7361C27.2785 71.9521 26.8759 71.928 26.5658 71.6783C26.2469 71.4307 26.1341 71.0498 26.3062 70.8306C26.4822 70.6137 26.8731 70.6403 27.1927 70.8878C27.5123 71.1389 27.6266 71.5167 27.4482 71.7361ZM29.2272 73.856C28.9996 74.074 28.5553 73.9737 28.2382 73.6437C27.9238 73.3132 27.8533 72.8682 28.0862 72.6486C28.3171 72.4294 28.7542 72.5244 29.0744 72.8512C29.3891 73.188 29.4595 73.6329 29.2272 73.856ZM32.0379 76.1923C31.8492 76.4807 31.3514 76.4901 30.9404 76.2025C30.5223 75.9238 30.3452 75.4625 30.5346 75.174C30.726 74.8845 31.2271 74.8781 31.6404 75.1625C32.0556 75.4409 32.2423 75.9042 32.0379 76.1923ZM35.2602 76.6209C35.2111 76.9636 34.7655 77.1865 34.271 77.1225C33.7765 77.0542 33.407 76.7204 33.4501 76.375C33.4961 76.0306 33.9427 75.8012 34.4423 75.8744C34.936 75.9421 35.3057 76.273 35.2602 76.6209ZM38.8238 76.4548C38.89 76.797 38.5345 77.1458 38.0394 77.2305C37.5424 77.3206 37.0948 77.1061 37.0357 76.7684C36.9806 76.4209 37.3276 76.0763 37.8251 75.989C38.3196 75.9008 38.7696 76.1128 38.8238 76.4548ZM42.2432 75.778C42.3558 76.1043 42.0657 76.5037 41.5876 76.6736C41.1173 76.8387 40.6361 76.7025 40.5219 76.3792C40.4073 76.0447 40.7037 75.6444 41.1732 75.4786C41.6529 75.3148 42.1263 75.4467 42.2432 75.778Z" fill="#1A1313"/>
</g>
</g>
<defs>
<clipPath id="clip0_745_6189">
<rect width="84.48" height="82.5" fill="white" transform="translate(0.0668945 13.2744) rotate(-9)"/>
</clipPath>
</defs>
</svg>
