<svg width="96" height="95" viewBox="0 0 96 95" fill="none" xmlns="http://www.w3.org/2000/svg">
<g id="visual-studio-code 1" clip-path="url(#clip0_745_6171)">
<g id="Group">
<g id="Mask group">
<mask id="mask0_745_6171" style="mask-type:luminance" maskUnits="userSpaceOnUse" x="4" y="3" width="90" height="84">
<g id="Group_2">
<path id="Vector" d="M70.3473 86.4816C71.7257 86.8327 73.2218 86.6155 74.4713 85.8136L90.6515 75.4278C92.3516 74.3364 93.2761 72.3663 93.0298 70.3601L86.1408 14.2538C85.8945 12.2476 84.5208 10.5599 82.6072 9.91227L64.395 3.74894C62.5495 3.12442 60.5352 3.58021 59.1425 4.87984C58.9434 5.06551 58.757 5.26841 58.5859 5.4878L29.3534 39.5635L13.6776 30.4395C12.2183 29.5901 10.3614 29.9024 9.26016 31.1823L5.17475 35.9305C3.82768 37.4962 4.11887 39.8821 5.80294 41.0778L19.6315 50.896L8.58897 63.7682C7.24419 65.3359 7.53885 67.7213 9.22468 68.9145L14.3374 72.5332C15.7157 73.5089 17.5929 73.3625 18.8034 72.1856L31.8062 59.5401L68.4141 85.5317C68.9988 85.9888 69.6584 86.3062 70.3473 86.4816ZM66.3889 25.9083L43.7381 47.9361L71.0451 63.83L66.3889 25.9083Z" fill="white"/>
</g>
</mask>
<g mask="url(#mask0_745_6171)">
<path id="Vector_2" d="M82.6597 9.91821L64.4327 3.74513C62.3231 3.03058 59.992 3.72748 58.6205 5.48278L8.58957 63.7674C7.24388 65.3352 7.53854 67.7206 9.22528 68.9138L14.3408 72.5321C15.7198 73.5077 17.5982 73.3612 18.8095 72.1841L80.334 12.3858C82.3981 10.3797 85.8666 11.6016 86.2174 14.4586L86.1928 14.2587C85.9466 12.2534 84.5733 10.5663 82.6597 9.91821Z" fill="#0065A9"/>
</g>
</g>
<g id="Mask group_2">
<mask id="mask1_745_6171" style="mask-type:luminance" maskUnits="userSpaceOnUse" x="4" y="3" width="90" height="84">
<g id="Group_3">
<path id="Vector_3" d="M70.3473 86.4816C71.7257 86.8327 73.2218 86.6155 74.4713 85.8136L90.6515 75.4278C92.3516 74.3364 93.2761 72.3663 93.0298 70.3601L86.1408 14.2538C85.8945 12.2476 84.5208 10.5599 82.6072 9.91227L64.395 3.74894C62.5495 3.12442 60.5352 3.58021 59.1425 4.87984C58.9434 5.06551 58.757 5.26841 58.5859 5.4878L29.3534 39.5635L13.6776 30.4395C12.2183 29.5901 10.3614 29.9024 9.26016 31.1823L5.17475 35.9305C3.82768 37.4962 4.11887 39.8821 5.80294 41.0778L19.6315 50.896L8.58897 63.7682C7.24419 65.3359 7.53885 67.7213 9.22468 68.9145L14.3374 72.5332C15.7157 73.5089 17.5929 73.3625 18.8034 72.1856L31.8062 59.5401L68.4141 85.5317C68.9988 85.9888 69.6584 86.3062 70.3473 86.4816ZM66.3889 25.9083L43.7381 47.9361L71.0451 63.83L66.3889 25.9083Z" fill="white"/>
</g>
</mask>
<g mask="url(#mask1_745_6171)">
<path id="Vector_4" d="M90.701 75.408L74.5088 85.8072C72.6347 87.0107 70.2043 86.8984 68.4489 85.5272L5.80376 41.0775C4.11877 39.8819 3.82758 37.4959 5.17557 35.9302L9.26377 31.1816C10.3658 29.9016 12.2239 29.5891 13.6839 30.4384L87.8474 73.5761C90.3355 75.0233 93.4054 72.9987 93.0545 70.1416L93.0791 70.3416C93.3253 72.3468 92.401 74.3159 90.701 75.408Z" fill="#007ACC"/>
</g>
</g>
<g id="Mask group_3">
<mask id="mask2_745_6171" style="mask-type:luminance" maskUnits="userSpaceOnUse" x="4" y="3" width="90" height="84">
<g id="Group_4">
<path id="Vector_5" d="M70.3473 86.4816C71.7257 86.8327 73.2218 86.6155 74.4713 85.8136L90.6515 75.4278C92.3516 74.3364 93.2761 72.3663 93.0298 70.3601L86.1408 14.2538C85.8945 12.2476 84.5208 10.5599 82.6072 9.91227L64.395 3.74894C62.5495 3.12442 60.5352 3.58021 59.1425 4.87984C58.9434 5.06551 58.757 5.26841 58.5859 5.4878L29.3534 39.5635L13.6776 30.4395C12.2183 29.5901 10.3614 29.9024 9.26016 31.1823L5.17475 35.9305C3.82768 37.4962 4.11887 39.8821 5.80294 41.0778L19.6315 50.896L8.58897 63.7682C7.24419 65.3359 7.53885 67.7213 9.22468 68.9145L14.3374 72.5332C15.7157 73.5089 17.5929 73.3625 18.8034 72.1856L31.8062 59.5401L68.4141 85.5317C68.9988 85.9888 69.6584 86.3062 70.3473 86.4816ZM66.3889 25.9083L43.7381 47.9361L71.0451 63.83L66.3889 25.9083Z" fill="white"/>
</g>
</mask>
<g mask="url(#mask2_745_6171)">
<path id="Vector_6" d="M74.4555 85.8207C72.5807 87.0235 70.1502 86.911 68.3948 85.5395C70.5576 87.2292 73.684 85.4603 73.3495 82.736L64.0524 7.01679C63.7179 4.29247 60.2564 3.33255 58.5666 5.49547C59.9381 3.74002 62.2691 3.04255 64.3793 3.75617L82.6019 9.91823C84.5168 10.5657 85.8911 12.2533 86.1375 14.2596L93.0265 70.3659C93.2728 72.3721 92.3476 74.342 90.6462 75.4335L74.4555 85.8207Z" fill="#1F9CF0"/>
</g>
</g>
<g id="Mask group_4">
<mask id="mask3_745_6171" style="mask-type:luminance" maskUnits="userSpaceOnUse" x="4" y="3" width="90" height="84">
<g id="Group_5">
<path id="Vector_7" d="M70.3473 86.4816C71.7257 86.8327 73.2218 86.6155 74.4713 85.8136L90.6515 75.4278C92.3516 74.3364 93.2761 72.3663 93.0298 70.3601L86.1408 14.2538C85.8945 12.2476 84.5208 10.5599 82.6072 9.91227L64.395 3.74894C62.5495 3.12442 60.5352 3.58021 59.1425 4.87984C58.9434 5.06551 58.757 5.26841 58.5859 5.4878L29.3534 39.5635L13.6776 30.4395C12.2183 29.5901 10.3614 29.9024 9.26016 31.1823L5.17475 35.9305C3.82768 37.4962 4.11887 39.8821 5.80294 41.0778L19.6315 50.896L8.58897 63.7682C7.24419 65.3359 7.53885 67.7213 9.22468 68.9145L14.3374 72.5332C15.7157 73.5089 17.5929 73.3625 18.8034 72.1856L31.8062 59.5401L68.4141 85.5317C68.9988 85.9888 69.6584 86.3062 70.3473 86.4816ZM66.3889 25.9083L43.7381 47.9361L71.0451 63.83L66.3889 25.9083Z" fill="white"/>
</g>
</mask>
<g mask="url(#mask3_745_6171)">
<path id="Vector_8" d="M70.3474 86.4817C71.7258 86.8324 73.2219 86.6156 74.4711 85.8137L90.6512 75.4276C92.3516 74.3362 93.2762 72.3664 93.0299 70.3601L86.1409 14.2538C85.8946 12.2475 84.5209 10.5599 82.6073 9.91225L64.3948 3.74897C62.5496 3.12441 60.5353 3.5802 59.1423 4.87987C58.9435 5.0655 58.7571 5.2684 58.5857 5.48783L29.3534 39.5635L13.6776 30.4394C12.2184 29.5901 10.3614 29.9024 9.26015 31.1823L5.17475 35.9305C3.82768 37.4962 4.11887 39.8821 5.80295 41.0778L19.6315 50.8961L8.58898 63.7682C7.2442 65.3359 7.53886 67.7214 9.22468 68.9146L14.3374 72.5333C15.7156 73.509 17.5929 73.3626 18.8034 72.1856L31.8062 59.5401L68.4139 85.5318C68.9986 85.9889 69.6585 86.3063 70.3474 86.4817ZM66.389 25.9082L43.7382 47.9362L71.0452 63.8301L66.389 25.9082Z" fill="url(#paint0_linear_745_6171)" fill-opacity="0.25"/>
</g>
</g>
</g>
</g>
<defs>
<linearGradient id="paint0_linear_745_6171" x1="4177.17" y1="-501.758" x2="5197.43" y2="7807.58" gradientUnits="userSpaceOnUse">
<stop stop-color="white"/>
<stop offset="1" stop-color="white" stop-opacity="0"/>
</linearGradient>
<clipPath id="clip0_745_6171">
<rect width="84.48" height="83.82" fill="white" transform="translate(0.959961 11.0137) rotate(-7)"/>
</clipPath>
</defs>
</svg>
