<svg width="22" height="22" viewBox="0 0 22 22" fill="none" xmlns="http://www.w3.org/2000/svg">
  <path
    d="M15.0003 9.50039C15.0003 10.3288 14.5526 11.0004 14.0003 11.0004C13.448 11.0004 13.0003 10.3288 13.0003 9.50039C13.0003 8.67196 13.448 8.00039 14.0003 8.00039C14.5526 8.00039 15.0003 8.67196 15.0003 9.50039Z"
    fill="black" />
  <path
    d="M9.00031 9.50039C9.00031 10.3288 8.55259 11.0004 8.00031 11.0004C7.44802 11.0004 7.00031 10.3288 7.00031 9.50039C7.00031 8.67196 7.44802 8.00039 8.00031 8.00039C8.55259 8.00039 9.00031 8.67196 9.00031 9.50039Z"
    fill="black" />
  <path fill-rule="evenodd" clip-rule="evenodd"
    d="M12.2653 1.05116C12.3477 0.645219 12.7436 0.382936 13.1495 0.46533C17.363 1.32056 20.6801 4.63763 21.5354 8.85114C21.6178 9.25707 21.3556 9.65295 20.9496 9.73535C20.5437 9.81775 20.1478 9.55547 20.0654 9.14954C19.33 5.52642 16.4743 2.67075 12.8511 1.93535C12.4452 1.85296 12.1829 1.45709 12.2653 1.05116ZM9.73548 1.05121C9.81787 1.45714 9.55559 1.85301 9.14965 1.93541C5.52651 2.6708 2.67081 5.52647 1.93535 9.14959C1.85295 9.55552 1.45708 9.8178 1.05114 9.7354C0.645208 9.653 0.382932 9.25713 0.465332 8.85119C1.32063 4.63769 4.63775 1.32061 8.85128 0.465383C9.25721 0.382989 9.65308 0.645272 9.73548 1.05121ZM1.0513 12.2654C1.45724 12.183 1.85311 12.4453 1.93551 12.8512C2.67097 16.4743 5.52667 19.33 9.14981 20.0654C9.55575 20.1478 9.81803 20.5436 9.73564 20.9496C9.65324 21.3555 9.25737 21.6178 8.85144 21.5354C4.63791 20.6802 1.32079 17.3631 0.465492 13.1496C0.383091 12.7437 0.645368 12.3478 1.0513 12.2654ZM20.9496 12.2654C21.3556 12.3478 21.6178 12.7437 21.5354 13.1496C20.6801 17.3631 17.363 20.6802 13.1495 21.5354C12.7436 21.6178 12.3477 21.3555 12.2653 20.9496C12.1829 20.5436 12.4452 20.1478 12.8511 20.0654C16.4743 19.33 19.33 16.4743 20.0654 12.8512C20.1478 12.4453 20.5437 12.183 20.9496 12.2654ZM7.39778 14.5538C7.64444 14.221 8.11415 14.1512 8.44692 14.3979C9.17526 14.9377 10.0544 15.2504 11.0003 15.2504C11.9462 15.2504 12.8254 14.9377 13.5537 14.3979C13.8865 14.1512 14.3562 14.221 14.6028 14.5538C14.8495 14.8865 14.7797 15.3563 14.4469 15.6029C13.4745 16.3237 12.2853 16.7504 11.0003 16.7504C9.71533 16.7504 8.5261 16.3237 7.55369 15.6029C7.22093 15.3563 7.15112 14.8865 7.39778 14.5538Z"
    fill="black" />
</svg>