<svg width="24" height="24" viewBox="0 0 24 24" fill="none" xmlns="http://www.w3.org/2000/svg">
  <g>
    <path id="Vector" fill-rule="evenodd" clip-rule="evenodd"
      d="M11.9995 2.90049C11.8806 3.07699 11.7341 3.33717 11.5159 3.72853L11.3848 3.96367C11.3751 3.98113 11.3651 3.99938 11.3547 4.01827C11.2461 4.21557 11.0986 4.48359 10.855 4.66849C10.6069 4.85681 10.3078 4.92266 10.0939 4.96974C10.0736 4.97421 10.0541 4.97851 10.0354 4.98273L9.78087 5.04032C9.3157 5.14557 9.0258 5.21294 8.831 5.28104C8.95145 5.462 9.15363 5.70102 9.48159 6.08453L9.65511 6.28745C9.66788 6.30237 9.68119 6.31778 9.69492 6.33367C9.84266 6.50471 10.0392 6.73224 10.1301 7.02438C10.22 7.31348 10.1895 7.61259 10.1663 7.84122C10.1641 7.86257 10.162 7.88331 10.16 7.90336L10.1338 8.1741C10.0869 8.65774 10.0581 8.9706 10.0589 9.19191C10.2511 9.12379 10.5144 9.0042 10.9161 8.81921L11.1545 8.70948C11.172 8.7014 11.1904 8.69281 11.2095 8.68386C11.4073 8.59128 11.688 8.45994 11.9995 8.45994C12.3111 8.45994 12.5918 8.59128 12.7896 8.68386C12.8087 8.69281 12.8271 8.7014 12.8446 8.70948L13.083 8.81921C13.4847 9.00421 13.748 9.1238 13.9402 9.19191C13.941 8.9706 13.9122 8.65774 13.8653 8.1741L13.8391 7.90336C13.8371 7.88331 13.835 7.86257 13.8328 7.84123C13.8096 7.61259 13.7791 7.31348 13.869 7.02438C13.9599 6.73224 14.1564 6.5047 14.3042 6.33367C14.3179 6.31778 14.3312 6.30237 14.344 6.28744L14.5175 6.08453C14.8455 5.70102 15.0476 5.462 15.1681 5.28104C14.9733 5.21294 14.6834 5.14557 14.2182 5.04032L13.9637 4.98273C13.945 4.97851 13.9255 4.97421 13.9052 4.96974C13.6913 4.92266 13.3921 4.85681 13.1441 4.66849C12.9005 4.48359 12.753 4.21556 12.6444 4.01826C12.634 3.99937 12.624 3.98113 12.6143 3.96367L12.4832 3.72853C12.265 3.33717 12.1185 3.07699 11.9995 2.90049ZM14.1525 9.2502C14.1536 9.25023 14.1542 9.25028 14.1542 9.25029L14.1525 9.2502ZM9.84488 9.25029C9.84489 9.25028 9.84549 9.25023 9.84662 9.2502L9.84488 9.25029ZM10.8827 1.88484C11.0984 1.60321 11.4505 1.25 11.9995 1.25C12.5486 1.25 12.9007 1.60321 13.1164 1.88484C13.3241 2.15604 13.5367 2.53751 13.7679 2.9524C13.7763 2.96761 13.7848 2.98287 13.7934 2.99817L13.9245 3.23332C13.9613 3.29934 13.9897 3.35037 14.015 3.39412C14.032 3.42352 14.0453 3.44573 14.056 3.46286C14.0728 3.46751 14.0941 3.47303 14.1214 3.47967C14.1684 3.49111 14.2231 3.50351 14.2947 3.51971L14.5492 3.5773C14.5666 3.58123 14.5839 3.58514 14.6012 3.58905C15.0481 3.69009 15.4652 3.78439 15.7802 3.90852C16.1215 4.04302 16.5339 4.28543 16.6927 4.79638C16.8491 5.29916 16.6566 5.73321 16.4622 6.0421C16.2795 6.3323 15.9975 6.66198 15.6911 7.02013L15.484 7.26233C15.4352 7.31933 15.3977 7.36328 15.3658 7.40179C15.3396 7.43338 15.3215 7.45619 15.3086 7.4734C15.3103 7.5291 15.3174 7.60752 15.3321 7.75868L15.3632 8.08034C15.4097 8.55958 15.4522 8.997 15.4368 9.3415C15.4209 9.69943 15.3364 10.1785 14.911 10.5015C14.4733 10.8337 13.9842 10.7689 13.6373 10.6695C13.3127 10.5765 12.9227 10.3969 12.5044 10.2042C12.4882 10.1967 12.4719 10.1892 12.4556 10.1817L12.2173 10.072C12.1503 10.0411 12.099 10.0175 12.0544 9.99788C12.0324 9.9882 12.0144 9.98052 11.9995 9.97438C11.9846 9.98052 11.9666 9.9882 11.9447 9.99788C11.9001 10.0175 11.8488 10.0411 11.7818 10.072L11.5435 10.1817C11.5272 10.1892 11.5109 10.1967 11.4947 10.2042C11.0764 10.3969 10.6864 10.5765 10.3617 10.6695C10.0149 10.7689 9.52583 10.8337 9.08812 10.5015C8.66265 10.1785 8.57821 9.69943 8.56227 9.3415C8.54692 8.997 8.58936 8.5596 8.63586 8.08037C8.6375 8.06344 8.63915 8.04646 8.6408 8.02942L8.66704 7.75868C8.68169 7.60752 8.68883 7.5291 8.69052 7.47341C8.67758 7.45619 8.65949 7.43338 8.63333 7.4018C8.60141 7.36328 8.56386 7.31933 8.51512 7.26233L8.34159 7.05941C8.33035 7.04628 8.31915 7.03318 8.30797 7.02011C8.00162 6.66197 7.71961 6.33229 7.53693 6.0421C7.34248 5.73321 7.15 5.29916 7.30634 4.79638C7.46524 4.28543 7.8776 4.04302 8.21889 3.90852C8.53388 3.78439 8.951 3.69009 9.3979 3.58905C9.41517 3.58515 9.43249 3.58123 9.44985 3.5773L9.70439 3.51971C9.776 3.50351 9.83068 3.49112 9.87769 3.47967C9.90497 3.47302 9.92624 3.46751 9.94306 3.46287C9.95379 3.44573 9.96711 3.42352 9.98409 3.39412C10.0094 3.35037 10.0378 3.29934 10.0746 3.23332L10.2057 2.99817C10.2142 2.98287 10.2228 2.96761 10.2312 2.9524C10.4624 2.53751 10.675 2.15604 10.8827 1.88484ZM3.99955 8.20162C4.05172 8.29794 4.16278 8.49454 4.34507 8.63293C4.54098 8.78165 4.77613 8.83117 4.87385 8.85175C4.88362 8.8538 4.89201 8.85557 4.89886 8.85712L4.91945 8.86178L4.88676 8.9C4.88174 8.90587 4.87569 8.91277 4.86877 8.92065C4.8002 8.99878 4.64692 9.17342 4.5762 9.40084C4.50645 9.62513 4.53159 9.85483 4.54308 9.95978C4.54425 9.97048 4.54527 9.97988 4.54605 9.98785L4.54713 9.99898C4.45282 9.95385 4.23902 9.85497 3.99955 9.85497C3.76007 9.85497 3.54627 9.95385 3.45197 9.99898L3.45305 9.98785C3.45382 9.97988 3.45485 9.97048 3.45602 9.95978C3.4675 9.85483 3.49264 9.62513 3.42289 9.40084C3.35217 9.17342 3.19889 8.99878 3.13032 8.92065C3.12341 8.91277 3.11735 8.90587 3.11233 8.9L3.07964 8.86178L3.10023 8.85712C3.10708 8.85557 3.11548 8.8538 3.12524 8.85175C3.22296 8.83117 3.45811 8.78165 3.65402 8.63293C3.83632 8.49454 3.94738 8.29794 3.99955 8.20162ZM2.93472 8.12561L2.79284 7.4985L2.93472 8.12561ZM3.40555 10.6324C3.40576 10.6338 3.40583 10.6346 3.40582 10.6346L3.40555 10.6324ZM4.59328 10.6346C4.59326 10.6346 4.59334 10.6338 4.59355 10.6324L4.59328 10.6346ZM3.14339 6.71442C3.27206 6.54641 3.54519 6.25 3.99955 6.25C4.4539 6.25 4.72704 6.54641 4.8557 6.71442C4.97678 6.87253 5.09543 7.08561 5.2046 7.28166C5.2111 7.29334 5.21757 7.30496 5.22401 7.3165L5.27266 7.40378L5.35715 7.4229C5.37002 7.42581 5.383 7.42874 5.39607 7.43169C5.60696 7.47928 5.842 7.53232 6.02737 7.60538C6.23836 7.68853 6.5746 7.86998 6.70423 8.28684C6.83132 8.69552 6.66613 9.03351 6.54821 9.22083C6.4417 9.39002 6.28397 9.5743 6.13911 9.74353C6.13054 9.75355 6.122 9.76352 6.11353 9.77343L6.04056 9.85875L6.05217 9.97854C6.05343 9.99151 6.0547 10.0046 6.05597 10.0177C6.07803 10.2443 6.10172 10.4877 6.09282 10.6874C6.08335 10.9 6.03087 11.2846 5.682 11.5494C5.32089 11.8235 4.92773 11.7562 4.71516 11.6953C4.52411 11.6405 4.30457 11.5393 4.10731 11.4483C4.09503 11.4427 4.08284 11.4371 4.07074 11.4315L3.99955 11.3987L3.92835 11.4315C3.91626 11.4371 3.90406 11.4427 3.89178 11.4483C3.69453 11.5393 3.47498 11.6405 3.28394 11.6953C3.07137 11.7562 2.6782 11.8235 2.31709 11.5494C1.96823 11.2846 1.91575 10.9 1.90628 10.6874C1.89738 10.4877 1.92106 10.2443 1.94312 10.0177C1.9444 10.0046 1.94567 9.99152 1.94692 9.97854L1.95853 9.85875L1.88557 9.77343C1.87709 9.76352 1.86856 9.75355 1.85998 9.74353C1.71513 9.5743 1.55739 9.39002 1.45088 9.22083C1.33296 9.03351 1.16777 8.69552 1.29486 8.28684C1.42449 7.86998 1.76074 7.68853 1.97173 7.60538C2.1571 7.53232 2.39213 7.47928 2.60302 7.43169C2.6161 7.42874 2.62907 7.42581 2.64194 7.4229L2.72643 7.40378L2.77509 7.3165C2.78152 7.30496 2.78799 7.29334 2.79449 7.28167C2.90366 7.08562 3.02231 6.87253 3.14339 6.71442ZM19.9995 8.20162C20.0517 8.29793 20.1628 8.49454 20.3451 8.63293C20.541 8.78165 20.7761 8.83117 20.8738 8.85174C20.8836 8.8538 20.892 8.85557 20.8989 8.85712L20.9195 8.86178L20.8868 8.9C20.8817 8.90587 20.8757 8.91277 20.8688 8.92065C20.8002 8.99878 20.6469 9.17342 20.5762 9.40084C20.5065 9.62513 20.5316 9.85482 20.5431 9.95978C20.5442 9.97048 20.5453 9.97988 20.546 9.98785L20.5471 9.99898C20.4528 9.95385 20.239 9.85497 19.9995 9.85497C19.7601 9.85497 19.5463 9.95385 19.452 9.99898L19.453 9.98785C19.4538 9.97988 19.4548 9.97048 19.456 9.95978C19.4675 9.85483 19.4926 9.62513 19.4229 9.40084C19.3522 9.17342 19.1989 8.99878 19.1303 8.92065C19.1234 8.91277 19.1173 8.90587 19.1123 8.90001L19.0796 8.86178L19.1002 8.85712C19.1071 8.85557 19.1155 8.8538 19.1252 8.85175C19.223 8.83117 19.4581 8.78165 19.654 8.63293C19.8363 8.49454 19.9474 8.29793 19.9995 8.20162ZM19.4055 10.6324C19.4058 10.634 19.4058 10.6347 19.4058 10.6346L19.4055 10.6324ZM19.1434 6.71442C19.2721 6.54641 19.5452 6.25 19.9995 6.25C20.4539 6.25 20.727 6.54641 20.8557 6.71442C20.9768 6.87253 21.0954 7.08561 21.2046 7.28166C21.2111 7.29334 21.2176 7.30496 21.224 7.3165L21.2727 7.40378L21.3572 7.4229C21.37 7.42581 21.383 7.42874 21.3961 7.43169C21.607 7.47928 21.842 7.53233 22.0274 7.60538C22.2384 7.68853 22.5746 7.86998 22.7042 8.28684C22.8313 8.69552 22.6661 9.03351 22.5482 9.22083C22.4417 9.39003 22.284 9.57431 22.1391 9.74354C22.1305 9.75356 22.122 9.76352 22.1135 9.77343L22.0406 9.85875L22.0522 9.97854C22.0534 9.99151 22.0547 10.0046 22.056 10.0176C22.078 10.2443 22.1017 10.4877 22.0928 10.6874C22.0833 10.9 22.0309 11.2846 21.682 11.5494C21.3209 11.8235 20.9277 11.7562 20.7152 11.6953C20.5241 11.6405 20.3046 11.5393 20.1073 11.4484C20.095 11.4427 20.0828 11.4371 20.0707 11.4315L19.9995 11.3987L19.9284 11.4315C19.9163 11.4371 19.9041 11.4427 19.8918 11.4483C19.6945 11.5393 19.475 11.6405 19.2839 11.6953C19.0714 11.7562 18.6782 11.8235 18.3171 11.5494C17.9682 11.2846 17.9157 10.9 17.9063 10.6874C17.8974 10.4877 17.9211 10.2443 17.9431 10.0177C17.9444 10.0046 17.9457 9.99152 17.9469 9.97855L17.9585 9.85875L17.8856 9.77343C17.8771 9.76352 17.8686 9.75354 17.86 9.74352C17.7151 9.57429 17.5574 9.39002 17.4509 9.22083C17.333 9.03351 17.1678 8.69552 17.2949 8.28684C17.4245 7.86998 17.7607 7.68853 17.9717 7.60538C18.1571 7.53232 18.3921 7.47928 18.603 7.43169C18.6161 7.42874 18.6291 7.42581 18.6419 7.4229L18.7264 7.40378L18.7751 7.3165C18.7815 7.30496 18.788 7.29334 18.7945 7.28167C18.9037 7.08562 19.0223 6.87253 19.1434 6.71442ZM20.5933 10.6346C20.5933 10.6346 20.5933 10.6338 20.5935 10.6324L20.5933 10.6346ZM8.68346 14.4482C10.5493 14.0867 12.5466 14.1678 14.1628 15.1318C14.3898 15.2672 14.6026 15.4359 14.7883 15.6444C15.1641 16.0666 15.3582 16.5913 15.3674 17.1174C15.5587 16.994 15.7503 16.857 15.9449 16.71L17.7521 15.3448C18.6567 14.6615 19.9713 14.6614 20.876 15.3445C21.7119 15.9757 22.0452 17.1085 21.4468 18.0677C21.0215 18.7495 20.3809 19.6924 19.7291 20.2962C19.0702 20.9065 18.1324 21.4196 17.423 21.762C16.5616 22.1778 15.6311 22.4077 14.7263 22.5541C12.8771 22.8534 10.953 22.8076 9.12454 22.431C8.19013 22.2384 7.21909 22.1384 6.25948 22.1384H3.99955C3.58533 22.1384 3.24955 21.8026 3.24955 21.3884C3.24955 20.9742 3.58533 20.6384 3.99955 20.6384H6.25948C7.32159 20.6384 8.39403 20.749 9.42721 20.9618C11.0793 21.3022 12.8196 21.3432 14.4866 21.0734C15.3156 20.9392 16.0896 20.74 16.771 20.4111C17.4544 20.0812 18.2228 19.6468 18.7098 19.1957C19.2024 18.7395 19.7536 17.9479 20.1742 17.2738C20.3011 17.0703 20.2835 16.7767 19.9721 16.5416C19.6024 16.2624 19.0259 16.2625 18.6562 16.5417L16.849 17.9069C16.1276 18.4518 15.2396 19.0349 14.1383 19.2106C14.0271 19.2283 13.9114 19.2445 13.7913 19.2588C13.734 19.2692 13.6744 19.276 13.6128 19.2783C13.0505 19.3342 12.3993 19.3472 11.6808 19.2793C11.2684 19.2404 10.9657 18.8745 11.0046 18.4621C11.0436 18.0497 11.4094 17.747 11.8218 17.786C12.4493 17.8452 13.0122 17.8321 13.4898 17.7831C13.4995 17.7821 13.5091 17.7811 13.5187 17.7801C13.5387 17.7685 13.5691 17.7474 13.6091 17.7125C13.9286 17.4336 13.9571 16.9667 13.6679 16.6418C13.5946 16.5595 13.5044 16.4856 13.3944 16.42C12.2133 15.7155 10.6358 15.5978 8.96876 15.9208C7.31123 16.2419 5.66445 16.9817 4.4334 17.8547C4.09553 18.0943 3.62738 18.0146 3.38777 17.6768C3.14816 17.3389 3.22782 16.8708 3.56569 16.6311C4.96406 15.6395 6.80815 14.8115 8.68346 14.4482Z"
      fill="black" />
  </g>
</svg>