<svg width="20" height="20" viewBox="0 0 20 20" fill="none" xmlns="http://www.w3.org/2000/svg">
<g id="Broken / Weather / Moon Stars">
<g id="Vector">
<path d="M16.5834 1.92249C16.4493 1.58117 15.968 1.58117 15.8339 1.92249L15.4752 2.83523C15.4343 2.93944 15.3521 3.02193 15.2483 3.06303L14.3389 3.423C13.9988 3.55762 13.9988 4.04067 14.3389 4.17529L15.2483 4.53527C15.3521 4.57637 15.4343 4.65885 15.4752 4.76306L15.8339 5.6758C15.968 6.01712 16.4493 6.01712 16.5834 5.6758L16.9421 4.76306C16.983 4.65885 17.0652 4.57637 17.169 4.53527L18.0784 4.17529C18.4184 4.04067 18.4184 3.55762 18.0784 3.423L17.169 3.06303C17.0652 3.02193 16.983 2.93944 16.9421 2.83523L16.5834 1.92249Z" fill="#1A1313"/>
<path d="M13.3606 6.77456C13.2265 6.43324 12.7452 6.43324 12.6111 6.77456L12.4803 7.10735C12.4394 7.21156 12.3572 7.29405 12.2534 7.33515L11.9218 7.4664C11.5817 7.60101 11.5817 8.08406 11.9218 8.21868L12.2534 8.34993C12.3572 8.39103 12.4394 8.47352 12.4803 8.57772L12.6111 8.91051C12.7452 9.25183 13.2265 9.25183 13.3606 8.91051L13.4914 8.57772C13.5323 8.47352 13.6145 8.39103 13.7183 8.34993L14.0499 8.21868C14.39 8.08406 14.39 7.60101 14.0499 7.4664L13.7183 7.33515C13.6145 7.29405 13.5323 7.21156 13.4914 7.10735L13.3606 6.77456Z" fill="#1A1313"/>
<path d="M16.5834 1.92249C16.4493 1.58117 15.968 1.58117 15.8339 1.92249L15.4752 2.83523C15.4343 2.93944 15.3521 3.02193 15.2483 3.06303L14.3389 3.423C13.9988 3.55762 13.9988 4.04067 14.3389 4.17529L15.2483 4.53527C15.3521 4.57637 15.4343 4.65885 15.4752 4.76306L15.8339 5.6758C15.968 6.01712 16.4493 6.01712 16.5834 5.6758L16.9421 4.76306C16.983 4.65885 17.0652 4.57637 17.169 4.53527L18.0784 4.17529C18.4184 4.04067 18.4184 3.55762 18.0784 3.423L17.169 3.06303C17.0652 3.02193 16.983 2.93944 16.9421 2.83523L16.5834 1.92249Z" stroke="#F5F5FA"/>
<path d="M13.3606 6.77456C13.2265 6.43324 12.7452 6.43324 12.6111 6.77456L12.4803 7.10735C12.4394 7.21156 12.3572 7.29405 12.2534 7.33515L11.9218 7.4664C11.5817 7.60101 11.5817 8.08406 11.9218 8.21868L12.2534 8.34993C12.3572 8.39103 12.4394 8.47352 12.4803 8.57772L12.6111 8.91051C12.7452 9.25183 13.2265 9.25183 13.3606 8.91051L13.4914 8.57772C13.5323 8.47352 13.6145 8.39103 13.7183 8.34993L14.0499 8.21868C14.39 8.08406 14.39 7.60101 14.0499 7.4664L13.7183 7.33515C13.6145 7.29405 13.5323 7.21156 13.4914 7.10735L13.3606 6.77456Z" stroke="#F5F5FA"/>
</g>
<path id="Vector_2" d="M17.5561 9.88054L16.9141 9.49266L16.9141 9.49266L17.5561 9.88054ZM10.1193 2.4438L9.73144 1.80189L9.73144 1.80189L10.1193 2.4438ZM6.2089 16.5691C5.85035 16.3617 5.39156 16.4842 5.18415 16.8428C4.97674 17.2013 5.09926 17.6601 5.45781 17.8675L6.2089 16.5691ZM2.13233 14.542C2.33974 14.9006 2.79854 15.0231 3.15708 14.8157C3.51563 14.6083 3.63815 14.1495 3.43074 13.791L2.13233 14.542ZM17.5834 9.99984C17.5834 14.188 14.1882 17.5832 10 17.5832V19.0832C15.0166 19.0832 19.0834 15.0164 19.0834 9.99984H17.5834ZM2.41669 9.99984C2.41669 5.81168 5.81186 2.4165 10 2.4165V0.916504C4.98343 0.916504 0.916687 4.98325 0.916687 9.99984H2.41669ZM12.9167 11.7498C10.3394 11.7498 8.25002 9.6605 8.25002 7.08317H6.75002C6.75002 10.4889 9.51093 13.2498 12.9167 13.2498V11.7498ZM16.9141 9.49266C16.0957 10.8471 14.6113 11.7498 12.9167 11.7498V13.2498C15.158 13.2498 17.1192 12.0536 18.198 10.2684L16.9141 9.49266ZM8.25002 7.08317C8.25002 5.38859 9.15278 3.90413 10.5072 3.08571L9.73144 1.80189C7.94622 2.88063 6.75002 4.84185 6.75002 7.08317H8.25002ZM10 2.4165C9.89221 2.4165 9.7732 2.36936 9.68687 2.2795C9.61206 2.20163 9.59048 2.12311 9.58476 2.08075C9.57598 2.01572 9.59132 1.88656 9.73144 1.80189L10.5072 3.08572C10.9773 2.80164 11.1258 2.28383 11.0713 1.88C11.0144 1.45887 10.6781 0.916504 10 0.916504V2.4165ZM18.198 10.2684C18.1133 10.4085 17.9841 10.4239 17.9191 10.4151C17.8767 10.4094 17.7982 10.3878 17.7204 10.313C17.6305 10.2267 17.5834 10.1077 17.5834 9.99984H19.0834C19.0834 9.32177 18.541 8.98547 18.1199 8.92859C17.716 8.87405 17.1982 9.02254 16.9141 9.49266L18.198 10.2684ZM10 17.5832C8.61752 17.5832 7.32354 17.2139 6.2089 16.5691L5.45781 17.8675C6.79461 18.6408 8.3468 19.0832 10 19.0832V17.5832ZM3.43074 13.791C2.78596 12.6763 2.41669 11.3823 2.41669 9.99984H0.916687C0.916687 11.6531 1.35904 13.2052 2.13233 14.542L3.43074 13.791Z" fill="#F5F5FA"/>
</g>
</svg>
