<svg width="20" height="20" viewBox="0 0 20 20" fill="none" xmlns="http://www.w3.org/2000/svg">
<g id="Broken / Weather / Sun">
<path id="Vector" d="M10 1.66699V2.50033" stroke="#1A1313" stroke-width="1.5" stroke-linecap="round"/>
<path id="Vector_2" d="M10 17.5V18.3333" stroke="#1A1313" stroke-width="1.5" stroke-linecap="round"/>
<path id="Vector_3" d="M18.3334 10L17.5 10" stroke="#1A1313" stroke-width="1.5" stroke-linecap="round"/>
<path id="Vector_4" d="M2.5 10L1.66667 10" stroke="#1A1313" stroke-width="1.5" stroke-linecap="round"/>
<path id="Vector_5" d="M15.8923 4.10742L15.565 4.43479" stroke="#1A1313" stroke-width="1.5" stroke-linecap="round"/>
<path id="Vector_6" d="M4.43481 15.5654L4.10745 15.8928" stroke="#1A1313" stroke-width="1.5" stroke-linecap="round"/>
<path id="Vector_7" d="M15.8923 15.8926L15.565 15.5652" stroke="#1A1313" stroke-width="1.5" stroke-linecap="round"/>
<path id="Vector_8" d="M4.43481 4.43457L4.10745 4.10721" stroke="#1A1313" stroke-width="1.5" stroke-linecap="round"/>
<path id="Ellipse 363" d="M5.28451 8.33333C5.10026 8.85463 5 9.41561 5 10C5 12.7614 7.23858 15 10 15C12.7614 15 15 12.7614 15 10C15 7.23858 12.7614 5 10 5C9.41561 5 8.85463 5.10026 8.33333 5.28451" stroke="#1A1313" stroke-width="1.5" stroke-linecap="round"/>
</g>
</svg>
