<svg width="1440" height="192" viewBox="0 0 1440 192" fill="none" xmlns="http://www.w3.org/2000/svg">
<path opacity="0.25" d="M0 0V74.064C57.348 109.584 124.308 125.536 189.6 118.864C274.032 110.272 353.196 65.568 437.76 58.864C526.368 51.888 614.808 85.872 699.6 115.28C782.724 144.08 865.56 155.088 950.88 136.208C994.26 126.608 1034.7 107.664 1076.22 89.264C1187.39 40 1335.6 -22.864 1440 83.952V0H0Z" fill="#0ABCFF"/>
<path opacity="0.5" d="M0 0V25.296C15.6 59.072 33.168 90.976 57.228 115.28C119.292 178.032 198 177.6 269.496 146.528C306.876 130.288 341.604 104.816 377.1 82.848C426.204 52.448 478.776 9.248 534.096 3.376C577.608 -1.184 619.176 18.448 652.416 53.872C690.54 94.496 727.2 153.072 776.772 170.672C825.3 187.936 874.392 159.968 919.728 131.824C965.064 103.68 1009.92 69.424 1060.03 62.944C1131.71 53.584 1195.97 99.552 1262.71 125.088C1298.95 138.944 1333.51 134.96 1367.22 113.088C1394.14 95.664 1424.82 70 1440 34.304V0H0Z" fill="#0ABCFF"/>
<path d="M0 0V9.008C179.916 94.4 376.908 114.112 570.996 68.112C622.596 55.888 672.072 35.92 724.128 25.776C794.928 11.968 859.104 45.36 922.8 82.416C993.516 123.552 1063.2 152.384 1141.44 144C1245.28 132.8 1348.39 70.864 1440 8.304V0H0Z" fill="#0ABCFF"/>
</svg>
