<svg width="24" height="24" viewBox="0 0 24 24" fill="none" xmlns="http://www.w3.org/2000/svg">
<g id="discord-alt">
<path id="Vector" d="M14.82 4.25977C14.6214 4.61545 14.4444 4.98279 14.29 5.35977C12.7728 5.11982 11.2273 5.11982 9.71004 5.35977C9.55563 4.98279 9.37864 4.61545 9.18004 4.25977C7.75083 4.50397 6.36144 4.9413 5.05004 5.55977C2.70498 8.94405 1.64148 13.0527 2.05004 17.1498C3.57828 18.2986 5.2935 19.1748 7.12004 19.7398C7.53595 19.1904 7.90714 18.6085 8.23004 17.9998C7.63411 17.78 7.06134 17.502 6.52004 17.1698C6.6685 17.071 6.80894 16.9606 6.94004 16.8398C8.5185 17.6001 10.248 17.9949 12 17.9949C13.7521 17.9949 15.4816 17.6001 17.06 16.8398C17.2 16.9598 17.34 17.0698 17.48 17.1698C16.9358 17.4994 16.3636 17.7805 15.77 18.0098C16.0795 18.6323 16.4408 19.2277 16.85 19.7898C18.6743 19.2268 20.3866 18.3504 21.91 17.1998C22.3284 13.102 21.264 8.98995 18.91 5.60977C17.6134 4.9785 16.2377 4.52444 14.82 4.25977ZM8.68004 14.8098C8.17962 14.7738 7.71258 14.5455 7.37696 14.1725C7.04134 13.7996 6.86323 13.3112 6.88004 12.8098C6.8607 12.3077 7.03793 11.8178 7.37405 11.4444C7.71018 11.0709 8.1787 10.8432 8.68004 10.8098C9.18138 10.8432 9.6499 11.0709 9.98603 11.4444C10.3222 11.8178 10.4994 12.3077 10.48 12.8098C10.4994 13.3118 10.3222 13.8017 9.98603 14.1752C9.6499 14.5486 9.18138 14.7763 8.68004 14.8098ZM15.32 14.8098C14.8196 14.7738 14.3526 14.5455 14.017 14.1725C13.6813 13.7996 13.5032 13.3112 13.52 12.8098C13.5007 12.3077 13.6779 11.8178 14.0141 11.4444C14.3502 11.0709 14.8187 10.8432 15.32 10.8098C15.8223 10.8407 16.2923 11.0677 16.629 11.4417C16.9656 11.8158 17.142 12.307 17.12 12.8098C17.142 13.3125 16.9656 13.8038 16.629 14.1778C16.2923 14.5519 15.8223 14.7788 15.32 14.8098Z" fill="#1A1313"/>
</g>
</svg>
