<svg width="24" height="25" viewBox="0 0 24 25" fill="none" xmlns="http://www.w3.org/2000/svg">
<g id="Linear / Security / Eye Closed">
<path id="Vector" d="M2.68936 6.98288C2.52619 6.60216 2.08528 6.42579 1.70456 6.58896C1.32384 6.75213 1.14747 7.19304 1.31064 7.57376L2.68936 6.98288ZM15.5872 13.607L15.3125 12.9091L15.5872 13.607ZM9.04145 14.0161C9.26736 13.6689 9.16904 13.2043 8.82185 12.9784C8.47466 12.7525 8.01008 12.8508 7.78417 13.198L9.04145 14.0161ZM6.37136 15.3693C6.14545 15.7165 6.24377 16.1811 6.59096 16.407C6.93815 16.6329 7.40273 16.5345 7.62864 16.1874L6.37136 15.3693ZM22.6894 7.57376C22.8525 7.19304 22.6762 6.75213 22.2954 6.58896C21.9147 6.42579 21.4738 6.60216 21.3106 6.98288L22.6894 7.57376ZM19 11.4072L18.4867 10.8603V10.8603L19 11.4072ZM19.9697 13.4375C20.2626 13.7304 20.7374 13.7304 21.0303 13.4375C21.3232 13.1446 21.3232 12.6697 21.0303 12.3768L19.9697 13.4375ZM11.25 16.7783C11.25 17.1925 11.5858 17.5283 12 17.5283C12.4142 17.5283 12.75 17.1925 12.75 16.7783H11.25ZM16.3714 16.1874C16.5973 16.5345 17.0619 16.6329 17.409 16.407C17.7562 16.1811 17.8545 15.7165 17.6286 15.3693L16.3714 16.1874ZM5.53033 11.9375C5.82322 11.6446 5.82322 11.1697 5.53033 10.8768C5.23744 10.5839 4.76256 10.5839 4.46967 10.8768L5.53033 11.9375ZM2.96967 12.3768C2.67678 12.6697 2.67678 13.1446 2.96967 13.4375C3.26256 13.7304 3.73744 13.7304 4.03033 13.4375L2.96967 12.3768ZM12 13.5283C8.77611 13.5283 6.46133 11.9229 4.9246 10.268C4.15645 9.44075 3.59325 8.61116 3.22259 7.98846C3.03769 7.67782 2.90187 7.42064 2.8134 7.24369C2.76919 7.15528 2.73689 7.08707 2.71627 7.04243C2.70597 7.02012 2.69859 7.00372 2.69411 6.99365C2.69187 6.98862 2.69036 6.98517 2.68957 6.98335C2.68917 6.98245 2.68896 6.98195 2.68892 6.98187C2.68891 6.98183 2.68893 6.98189 2.68901 6.98206C2.68904 6.98214 2.68913 6.98235 2.68915 6.98239C2.68925 6.98262 2.68936 6.98288 2 7.27832C1.31064 7.57376 1.31077 7.57407 1.31092 7.57441C1.31098 7.57456 1.31114 7.57492 1.31127 7.57522C1.31152 7.57581 1.31183 7.57652 1.31218 7.57732C1.31287 7.57894 1.31376 7.58098 1.31483 7.58344C1.31698 7.58835 1.31988 7.59494 1.32353 7.60315C1.33083 7.61957 1.34115 7.64247 1.35453 7.67143C1.38127 7.72934 1.42026 7.81152 1.47176 7.91451C1.57469 8.12038 1.72794 8.41007 1.93366 8.75568C2.34425 9.44548 2.96855 10.3659 3.8254 11.2887C5.53867 13.1337 8.22389 15.0283 12 15.0283V13.5283ZM15.3125 12.9091C14.3421 13.2911 13.2417 13.5283 12 13.5283V15.0283C13.4382 15.0283 14.7246 14.7526 15.8619 14.3049L15.3125 12.9091ZM7.78417 13.198L6.37136 15.3693L7.62864 16.1874L9.04145 14.0161L7.78417 13.198ZM22 7.27832C21.3106 6.98288 21.3107 6.98273 21.3108 6.98259C21.3108 6.98255 21.3108 6.98242 21.3109 6.98234C21.3109 6.9822 21.311 6.98208 21.311 6.982C21.3111 6.98184 21.3111 6.98181 21.3111 6.98192C21.311 6.98212 21.3107 6.98284 21.3101 6.98408C21.309 6.98655 21.307 6.99107 21.3041 6.99756C21.2983 7.01055 21.2889 7.03141 21.2758 7.05957C21.2495 7.11589 21.2086 7.20127 21.1526 7.31099C21.0406 7.53059 20.869 7.84663 20.6354 8.22152C20.1669 8.97348 19.4563 9.95029 18.4867 10.8603L19.5133 11.954C20.6023 10.9318 21.3917 9.84419 21.9085 9.01478C22.1676 8.599 22.36 8.24512 22.4889 7.99247C22.5533 7.86607 22.602 7.76475 22.6353 7.69339C22.6519 7.65771 22.6647 7.6295 22.6737 7.60936C22.6782 7.59929 22.6818 7.59124 22.6844 7.58528C22.6857 7.5823 22.6867 7.57985 22.6876 7.57792C22.688 7.57696 22.6883 7.57613 22.6886 7.57544C22.6888 7.57509 22.6889 7.57478 22.689 7.5745C22.6891 7.57436 22.6892 7.57417 22.6892 7.5741C22.6893 7.57393 22.6894 7.57376 22 7.27832ZM18.4867 10.8603C17.6277 11.6666 16.5739 12.4126 15.3125 12.9091L15.8619 14.3049C17.3355 13.7249 18.5466 12.8613 19.5133 11.954L18.4867 10.8603ZM18.4697 11.9375L19.9697 13.4375L21.0303 12.3768L19.5303 10.8768L18.4697 11.9375ZM11.25 14.2783V16.7783H12.75V14.2783H11.25ZM14.9586 14.0161L16.3714 16.1874L17.6286 15.3693L16.2158 13.198L14.9586 14.0161ZM4.46967 10.8768L2.96967 12.3768L4.03033 13.4375L5.53033 11.9375L4.46967 10.8768Z" fill="#A5A3A6"/>
</g>
</svg>
