<svg width="24" height="25" viewBox="0 0 24 25" fill="none" xmlns="http://www.w3.org/2000/svg">
  <g id="Linear / Security / Key">
    <path id="Vector"
      d="M15.6807 14.8652C19.1708 14.8652 22 12.0475 22 8.57176C22 5.09599 19.1708 2.27832 15.6807 2.27832C12.1907 2.27832 9.3615 5.09599 9.3615 8.57176C9.3615 10.1817 10.0963 11.3526 10.0963 11.3526L2.45441 18.9632C2.1115 19.3047 1.63143 20.1927 2.45441 21.0123L3.33616 21.8904C3.67905 22.1831 4.54119 22.5929 5.2466 21.8904L6.27531 20.8659C7.30403 21.8904 8.4797 21.305 8.92058 20.7195C9.65538 19.695 8.77362 18.6705 8.77362 18.6705L9.06754 18.3778C10.4783 19.7829 11.7128 18.9632 12.1537 18.3778C12.8885 17.3533 12.1537 16.3288 12.1537 16.3288C11.8598 15.7433 11.272 15.7433 12.0067 15.0116L12.8885 14.1334C13.5939 14.7188 15.0439 14.8652 15.6807 14.8652Z"
      stroke="#A5A3A6" stroke-width="1.5" stroke-linejoin="round" />
    <path id="Vector_2"
      d="M17.8853 8.57234C17.8853 9.78481 16.8984 10.7677 15.681 10.7677C14.4635 10.7677 13.4766 9.78481 13.4766 8.57234C13.4766 7.35986 14.4635 6.37695 15.681 6.37695C16.8984 6.37695 17.8853 7.35986 17.8853 8.57234Z"
      stroke="#A5A3A6" stroke-width="1.5" />
  </g>
</svg>