<svg width="24" height="25" viewBox="0 0 24 25" fill="none" xmlns="http://www.w3.org/2000/svg">
  <g id="Linear / Essentional, UI / Mention Circle">
    <path id="Vector"
      d="M12 18.2783C8.68629 18.2783 6 15.592 6 12.2783C6 8.96461 8.68629 6.27832 12 6.27832C15.3137 6.27832 18 8.96461 18 12.2783C18 12.9998 17.8726 13.6916 17.6392 14.3324C17.5551 14.5633 17.4075 14.7644 17.2268 14.931L17.1463 15.0053C16.591 15.5176 15.7573 15.5832 15.1288 15.1642C14.6735 14.8606 14.4 14.3496 14.4 13.8025V12.2783M14.4 12.2783C14.4 13.6038 13.3255 14.6783 12 14.6783C10.6745 14.6783 9.6 13.6038 9.6 12.2783C9.6 10.9528 10.6745 9.87832 12 9.87832C13.3255 9.87832 14.4 10.9528 14.4 12.2783Z"
      stroke="#A5A3A6" stroke-width="1.5" stroke-linecap="round" />
    <path id="Vector_2"
      d="M2 12.2783C2 6.75547 6.47715 2.27832 12 2.27832C17.5228 2.27832 22 6.75547 22 12.2783C22 17.8012 17.5228 22.2783 12 22.2783C6.47715 22.2783 2 17.8012 2 12.2783Z"
      stroke="#A5A3A6" stroke-width="1.5" />
  </g>
</svg>